<svg id="Группа_2" data-name="Группа 2" xmlns="http://www.w3.org/2000/svg" width="508.375" height="92.312" viewBox="0 0 508.375 92.312">
  <metadata><?xpacket begin="﻿" id="W5M0MpCehiHzreSzNTczkc9d"?>
<x:xmpmeta xmlns:x="adobe:ns:meta/" x:xmptk="Adobe XMP Core 5.6-c138 79.159824, 2016/09/14-01:09:01        ">
   <rdf:RDF xmlns:rdf="http://www.w3.org/1999/02/22-rdf-syntax-ns#">
      <rdf:Description rdf:about=""/>
   </rdf:RDF>
</x:xmpmeta>
                                                                                                    
                                                                                                    
                                                                                                    
                                                                                                    
                                                                                                    
                                                                                                    
                                                                                                    
                                                                                                    
                                                                                                    
                                                                                                    
                                                                                                    
                                                                                                    
                                                                                                    
                                                                                                    
                                                                                                    
                                                                                                    
                                                                                                    
                                                                                                    
                                                                                                    
                                                                                                    
                           
<?xpacket end="w"?></metadata>
<defs>
    <style>
      .cls-1, .cls-3 {
        fill: #f16d7f;
      }

      .cls-2 {
        fill: #222;
      }

      .cls-2, .cls-3 {
        fill-rule: evenodd;
      }
    </style>
  </defs>
  <rect id="Rectangle_16_copy" data-name="Rectangle 16 copy" class="cls-1" width="12" height="92"/>
  <path id="THE_BRAND_OF_LUXERIOUS_FASHION_копия" data-name="THE BRAND OF LUXERIOUS FASHION копия" class="cls-2" d="M254.578,375.29v8.04h12.288V419H277V383.33h12.289v-8.04H254.578Zm78.528,0H322.915v18.27H305.171V375.29h-10.19V419h10.19V400.52h17.744V419h10.191V375.29Zm8.692,0V419h28.114v-7.8H351.988V400.79h13.728v-7.5H351.988v-10.2h17.924v-7.8H341.8ZM407.676,419a22.335,22.335,0,0,0,6.984-1,14.991,14.991,0,0,0,5.14-2.79,11.877,11.877,0,0,0,3.162-4.185,12.5,12.5,0,0,0,1.079-5.19,8.824,8.824,0,0,0-2.068-6.045,12.025,12.025,0,0,0-6.384-3.405,14.887,14.887,0,0,0,3.387-1.695,9.865,9.865,0,0,0,2.308-2.175,8.386,8.386,0,0,0,1.319-2.565,9.617,9.617,0,0,0,.419-2.835,12.588,12.588,0,0,0-.914-4.89,8.99,8.99,0,0,0-2.922-3.72A14.675,14.675,0,0,0,414,376.13a30.52,30.52,0,0,0-7.7-.84H390.232V419h17.444Zm-0.24-18.54a11.777,11.777,0,0,1,3.177.36,5.273,5.273,0,0,1,2.024,1.02,3.578,3.578,0,0,1,1.079,1.62,6.939,6.939,0,0,1,.314,2.16,8.1,8.1,0,0,1-.269,2.07,4.438,4.438,0,0,1-.989,1.83,5.2,5.2,0,0,1-1.994,1.32,8.936,8.936,0,0,1-3.282.51h-7.133V400.46h7.073Zm-7.073-17.58H406.3a14.1,14.1,0,0,1,2.953.27,5.035,5.035,0,0,1,2.053.9,3.723,3.723,0,0,1,1.2,1.665,7.452,7.452,0,0,1,.389,2.6,6.189,6.189,0,0,1-.494,2.64,3.854,3.854,0,0,1-1.439,1.65,6.289,6.289,0,0,1-2.293.84,17.363,17.363,0,0,1-3.027.24h-5.275v-10.8Zm43.4,19.95a3.758,3.758,0,0,1,1.813.36,3.061,3.061,0,0,1,1.124,1.2l7.253,12.69A3.89,3.89,0,0,0,457.61,419h9.172l-9.292-15.21a7.494,7.494,0,0,0-1.544-1.83,9.517,9.517,0,0,0-1.9-1.26,14.653,14.653,0,0,0,3.762-2.07,13.1,13.1,0,0,0,2.757-2.865,12.17,12.17,0,0,0,1.694-3.5,13.886,13.886,0,0,0,.569-4.02,13.635,13.635,0,0,0-.959-5.16,10.277,10.277,0,0,0-3.072-4.11,15.162,15.162,0,0,0-5.455-2.715,29.133,29.133,0,0,0-8.078-.975H431.054V419h10.131V402.83h2.578Zm-2.578-19.95h4.076q3.927,0,5.8,1.62a5.633,5.633,0,0,1,1.873,4.5,8.375,8.375,0,0,1-.419,2.685,5.55,5.55,0,0,1-1.349,2.175,6.369,6.369,0,0,1-2.383,1.455,10.414,10.414,0,0,1-3.522.525h-4.076V382.88Zm54.969-7.59h-10.37L468.879,419h7.913a3.472,3.472,0,0,0,3.3-2.19l2.578-7.62h16.6l2.578,7.62a3.18,3.18,0,0,0,1.184,1.575,3.629,3.629,0,0,0,2.173.615h7.853Zm-7.133,15.09q0.45-1.14.959-2.7t0.989-3.39q0.51,1.8,1.034,3.345t0.914,2.685l4.017,11.97H485.005Zm34.408-15.09h-5.335V419h8.932V395.57q0-.96-0.06-2.055t-0.15-2.235l20.591,26.04a4.242,4.242,0,0,0,1.559,1.32,4.859,4.859,0,0,0,1.978.36h5.275V375.29h-8.931v23.13q0,1.05.06,2.235t0.179,2.445l-20.741-26.25a7.89,7.89,0,0,0-.749-0.81,2.716,2.716,0,0,0-.689-0.465,2.833,2.833,0,0,0-.81-0.225,8.579,8.579,0,0,0-1.109-.06h0ZM602.9,388.415a20.319,20.319,0,0,0-4.6-6.915,21.16,21.16,0,0,0-7.149-4.56,25.066,25.066,0,0,0-9.276-1.65H564.911V419h16.965a25.27,25.27,0,0,0,9.276-1.635,20.86,20.86,0,0,0,7.149-4.56,20.479,20.479,0,0,0,4.6-6.93A24.152,24.152,0,0,0,602.9,388.415Zm-9.577,14.595a12.479,12.479,0,0,1-2.413,4.425,10.481,10.481,0,0,1-3.851,2.79,13.067,13.067,0,0,1-5.185.975H575.1V383.09h6.774a13.067,13.067,0,0,1,5.185.975,10.481,10.481,0,0,1,3.851,2.79,12.479,12.479,0,0,1,2.413,4.425A20.9,20.9,0,0,1,593.325,403.01Zm-309.3,43.55a14.078,14.078,0,0,0-3.068-4.72,14.265,14.265,0,0,0-4.765-3.15A16.067,16.067,0,0,0,270,437.54a16.27,16.27,0,0,0-6.194,1.14,14.238,14.238,0,0,0-4.786,3.14,13.994,13.994,0,0,0-3.077,4.72,16.419,16.419,0,0,0,0,11.76,13.9,13.9,0,0,0,7.863,7.88,17.373,17.373,0,0,0,12.379,0,13.9,13.9,0,0,0,7.833-7.88A16.365,16.365,0,0,0,284.021,446.56Zm-6.385,9.77a8.248,8.248,0,0,1-1.608,2.93,6.841,6.841,0,0,1-2.568,1.83,8.953,8.953,0,0,1-3.457.63,9.082,9.082,0,0,1-3.486-.63,6.822,6.822,0,0,1-2.578-1.83,8.25,8.25,0,0,1-1.609-2.93,13.884,13.884,0,0,1,0-7.8,8.25,8.25,0,0,1,1.609-2.93,6.922,6.922,0,0,1,2.578-1.84,8.951,8.951,0,0,1,3.486-.64,8.824,8.824,0,0,1,3.457.64,6.943,6.943,0,0,1,2.568,1.84,8.248,8.248,0,0,1,1.608,2.93A13.86,13.86,0,0,1,277.636,456.33Zm11.709-18.47V467h6.794V455.66h9.951v-5.22h-9.951v-7.38h11.949v-5.2H289.345Zm38.724,0h-6.754V467h17.544v-5.4h-10.79V437.86Zm24.668,23.35a4.856,4.856,0,0,1-1.809-1.3,5.808,5.808,0,0,1-1.129-2.06,8.984,8.984,0,0,1-.389-2.75V437.86h-6.754v17.26a13.624,13.624,0,0,0,.859,4.92,10.928,10.928,0,0,0,2.478,3.86,11.225,11.225,0,0,0,3.936,2.52,15.62,15.62,0,0,0,10.451,0,11.225,11.225,0,0,0,3.936-2.52,11.049,11.049,0,0,0,2.488-3.86,13.5,13.5,0,0,0,.869-4.92V437.86h-6.754v17.26a8.952,8.952,0,0,1-.39,2.75,5.7,5.7,0,0,1-1.128,2.05,4.911,4.911,0,0,1-1.809,1.29A6.773,6.773,0,0,1,352.737,461.21ZM370.87,467h6.314a1.515,1.515,0,0,0,1-.33,2.714,2.714,0,0,0,.64-0.75l5.435-9.44a4.019,4.019,0,0,0,.359-0.76l5.835,10.2a2.44,2.44,0,0,0,.649.76,1.69,1.69,0,0,0,1.069.32h6.754l-9.331-15.28,9.131-13.86H392.25a1.52,1.52,0,0,0-1.358.84l-5.076,8.72c-0.106.173-.2,0.34-0.289,0.5a4.124,4.124,0,0,0-.23.5l-5.8-9.82a1.51,1.51,0,0,0-.549-0.57,2.109,2.109,0,0,0-.97-0.17H371.23l9.011,14.16Zm31.651-29.14V467h18.743v-5.2h-11.95v-6.94h9.152v-5h-9.152v-6.8h11.95v-5.2H402.521Zm32.05,18.36a2.509,2.509,0,0,1,1.209.24,2.04,2.04,0,0,1,.749.8l4.836,8.46A2.592,2.592,0,0,0,443.8,467h6.115l-6.195-10.14a4.989,4.989,0,0,0-1.029-1.22,6.4,6.4,0,0,0-1.268-.84,9.768,9.768,0,0,0,2.507-1.38,8.763,8.763,0,0,0,1.839-1.91,8.152,8.152,0,0,0,1.129-2.33,9.279,9.279,0,0,0,.379-2.68,9.089,9.089,0,0,0-.639-3.44,6.858,6.858,0,0,0-2.048-2.74,10.11,10.11,0,0,0-3.637-1.81,19.434,19.434,0,0,0-5.385-.65H426.1V467h6.753V456.22h1.719Zm-1.719-13.3h2.718a5.807,5.807,0,0,1,3.866,1.08,3.754,3.754,0,0,1,1.249,3,5.582,5.582,0,0,1-.279,1.79,3.7,3.7,0,0,1-.9,1.45,4.24,4.24,0,0,1-1.588.97,6.956,6.956,0,0,1-2.348.35h-2.718v-8.64Zm28.214-5.06h-6.793V467h6.793V437.86Zm34.039,8.7a14.06,14.06,0,0,0-3.067-4.72,14.28,14.28,0,0,0-4.766-3.15,16.062,16.062,0,0,0-6.184-1.15,16.271,16.271,0,0,0-6.2,1.14,14.224,14.224,0,0,0-4.785,3.14,13.964,13.964,0,0,0-3.077,4.72,16.419,16.419,0,0,0,0,11.76,13.9,13.9,0,0,0,7.862,7.88,17.373,17.373,0,0,0,12.379,0,13.889,13.889,0,0,0,7.833-7.88A16.365,16.365,0,0,0,495.105,446.56Zm-6.384,9.77a8.235,8.235,0,0,1-1.609,2.93,6.837,6.837,0,0,1-2.567,1.83,8.957,8.957,0,0,1-3.457.63,9.084,9.084,0,0,1-3.487-.63,6.829,6.829,0,0,1-2.578-1.83,8.248,8.248,0,0,1-1.608-2.93,13.86,13.86,0,0,1,0-7.8,8.248,8.248,0,0,1,1.608-2.93,6.93,6.93,0,0,1,2.578-1.84,8.952,8.952,0,0,1,3.487-.64,8.827,8.827,0,0,1,3.457.64,6.939,6.939,0,0,1,2.567,1.84,8.235,8.235,0,0,1,1.609,2.93A13.884,13.884,0,0,1,488.721,456.33Zm21.39,4.88a4.856,4.856,0,0,1-1.809-1.3,5.808,5.808,0,0,1-1.129-2.06,8.984,8.984,0,0,1-.389-2.75V437.86H500.03v17.26a13.624,13.624,0,0,0,.859,4.92,10.928,10.928,0,0,0,2.478,3.86,11.225,11.225,0,0,0,3.936,2.52,15.62,15.62,0,0,0,10.451,0,11.225,11.225,0,0,0,3.936-2.52,11.049,11.049,0,0,0,2.488-3.86,13.5,13.5,0,0,0,.869-4.92V437.86h-6.754v17.26a8.984,8.984,0,0,1-.389,2.75,5.718,5.718,0,0,1-1.129,2.05,4.911,4.911,0,0,1-1.809,1.29A6.773,6.773,0,0,1,510.111,461.21Zm38.235-20.57a9.813,9.813,0,0,0-1.769-1.29,13.144,13.144,0,0,0-2.128-.98,13.72,13.72,0,0,0-2.408-.62,15.944,15.944,0,0,0-2.607-.21,11.568,11.568,0,0,0-4.256.73,9.532,9.532,0,0,0-3.137,1.95A8.259,8.259,0,0,0,530.1,443a8.156,8.156,0,0,0-.659,3.2,9.221,9.221,0,0,0,.559,3.43,7.019,7.019,0,0,0,1.469,2.32,7.5,7.5,0,0,0,2.068,1.5,17.387,17.387,0,0,0,2.378.96q1.218,0.39,2.378.71a13.506,13.506,0,0,1,2.068.74,4.321,4.321,0,0,1,1.469,1.06,2.436,2.436,0,0,1,.559,1.66,3.087,3.087,0,0,1-1.019,2.57,4.485,4.485,0,0,1-2.857.81,6.633,6.633,0,0,1-2.358-.38,11.173,11.173,0,0,1-1.769-.84q-0.769-.461-1.378-0.84a2.28,2.28,0,0,0-1.209-.38,1.746,1.746,0,0,0-.859.22,1.63,1.63,0,0,0-.62.58l-2,3.16a10.549,10.549,0,0,0,2.018,1.56,15.809,15.809,0,0,0,2.478,1.21,16.449,16.449,0,0,0,2.727.79,14.159,14.159,0,0,0,2.768.28,12.254,12.254,0,0,0,4.426-.75,9.417,9.417,0,0,0,3.277-2.06,8.845,8.845,0,0,0,2.028-3.07,10.144,10.144,0,0,0,.7-3.78,7.8,7.8,0,0,0-.559-3.11,6.911,6.911,0,0,0-1.469-2.19,7.973,7.973,0,0,0-2.078-1.48,21.291,21.291,0,0,0-2.388-1.01q-1.218-.43-2.388-0.78a15.694,15.694,0,0,1-2.078-.77,4.8,4.8,0,0,1-1.468-1,2.019,2.019,0,0,1-.56-1.46,2.758,2.758,0,0,1,.929-2.19,4.213,4.213,0,0,1,2.828-.81,6.122,6.122,0,0,1,1.958.29,9.94,9.94,0,0,1,1.529.65q0.669,0.36,1.2.65a2.081,2.081,0,0,0,.99.29,1.408,1.408,0,0,0,.849-0.24,2.537,2.537,0,0,0,.629-0.72Z" transform="translate(-230 -375)"/>
  <path id="THE_BRAND_OF_LUXERIOUS_FASHION_копия_2" data-name="THE BRAND OF LUXERIOUS FASHION копия 2" class="cls-3" d="M561.813,437.86V467h6.794V455.66h9.95v-5.22h-9.95v-7.38h11.949v-5.2H561.813Zm35.887,0h-6.913L579.517,467h5.275a2.314,2.314,0,0,0,2.2-1.46l1.718-5.08h11.07l1.719,5.08a2.109,2.109,0,0,0,.789,1.05,2.42,2.42,0,0,0,1.449.41h5.235Zm-4.755,10.06q0.3-.761.639-1.8t0.659-2.26q0.34,1.2.69,2.23t0.609,1.79l2.678,7.98h-7.953Zm37.285-7.28a9.8,9.8,0,0,0-1.768-1.29,13.184,13.184,0,0,0-2.128-.98,13.72,13.72,0,0,0-2.408-.62,15.944,15.944,0,0,0-2.607-.21,11.574,11.574,0,0,0-4.257.73,9.553,9.553,0,0,0-3.137,1.95,8.27,8.27,0,0,0-1.938,2.78,8.156,8.156,0,0,0-.659,3.2,9.221,9.221,0,0,0,.559,3.43,7.019,7.019,0,0,0,1.469,2.32,7.5,7.5,0,0,0,2.068,1.5,17.336,17.336,0,0,0,2.378.96q1.218,0.39,2.378.71a13.545,13.545,0,0,1,2.068.74,4.316,4.316,0,0,1,1.468,1.06,2.431,2.431,0,0,1,.56,1.66,3.087,3.087,0,0,1-1.019,2.57,4.488,4.488,0,0,1-2.858.81,6.627,6.627,0,0,1-2.357-.38,11.131,11.131,0,0,1-1.769-.84q-0.769-.461-1.379-0.84a2.274,2.274,0,0,0-1.208-.38,1.753,1.753,0,0,0-.86.22,1.627,1.627,0,0,0-.619.58l-2,3.16a10.518,10.518,0,0,0,2.018,1.56,15.723,15.723,0,0,0,2.478,1.21,16.449,16.449,0,0,0,2.727.79,14.151,14.151,0,0,0,2.768.28,12.254,12.254,0,0,0,4.426-.75,9.436,9.436,0,0,0,3.277-2.06,8.873,8.873,0,0,0,2.028-3.07,10.144,10.144,0,0,0,.7-3.78,7.812,7.812,0,0,0-.559-3.11,6.927,6.927,0,0,0-1.469-2.19,7.973,7.973,0,0,0-2.078-1.48,21.37,21.37,0,0,0-2.388-1.01q-1.219-.43-2.388-0.78a15.694,15.694,0,0,1-2.078-.77,4.821,4.821,0,0,1-1.469-1,2.018,2.018,0,0,1-.559-1.46,2.758,2.758,0,0,1,.929-2.19,4.213,4.213,0,0,1,2.828-.81,6.122,6.122,0,0,1,1.958.29,9.927,9.927,0,0,1,1.528.65q0.669,0.36,1.2.65a2.081,2.081,0,0,0,.989.29,1.409,1.409,0,0,0,.85-0.24,2.552,2.552,0,0,0,.629-0.72Zm30.173-2.78h-6.794v12.18H641.78V437.86h-6.794V467h6.794V454.68h11.829V467H660.4V437.86Zm13.187,0H666.8V467h6.793V437.86Zm34.039,8.7a14.06,14.06,0,0,0-3.067-4.72,14.28,14.28,0,0,0-4.766-3.15,16.062,16.062,0,0,0-6.184-1.15,16.271,16.271,0,0,0-6.195,1.14,14.224,14.224,0,0,0-4.785,3.14,13.964,13.964,0,0,0-3.077,4.72,16.419,16.419,0,0,0,0,11.76,13.9,13.9,0,0,0,7.862,7.88,17.373,17.373,0,0,0,12.379,0,13.889,13.889,0,0,0,7.833-7.88A16.365,16.365,0,0,0,707.629,446.56Zm-6.384,9.77a8.235,8.235,0,0,1-1.609,2.93,6.837,6.837,0,0,1-2.567,1.83,8.957,8.957,0,0,1-3.457.63,9.084,9.084,0,0,1-3.487-.63,6.829,6.829,0,0,1-2.578-1.83,8.248,8.248,0,0,1-1.608-2.93,13.86,13.86,0,0,1,0-7.8,8.248,8.248,0,0,1,1.608-2.93,6.93,6.93,0,0,1,2.578-1.84,8.952,8.952,0,0,1,3.487-.64,8.827,8.827,0,0,1,3.457.64,6.939,6.939,0,0,1,2.567,1.84,8.235,8.235,0,0,1,1.609,2.93A13.884,13.884,0,0,1,701.245,456.33Zm15.265-18.47h-3.556V467h5.954V451.38q0-.641-0.04-1.37t-0.1-1.49L732.5,465.88a2.816,2.816,0,0,0,1.039.88,3.235,3.235,0,0,0,1.319.24h3.516V437.86h-5.954v15.42q0,0.7.04,1.49t0.12,1.63l-13.828-17.5a5.192,5.192,0,0,0-.5-0.54,1.808,1.808,0,0,0-.46-0.31,1.913,1.913,0,0,0-.539-0.15,5.681,5.681,0,0,0-.74-0.04h0Z" transform="translate(-230 -375)"/>
</svg>
