<svg id="Группа_1" data-name="Группа 1" xmlns="http://www.w3.org/2000/svg" width="91.5" height="19.656" viewBox="0 0 91.5 19.656">
  <metadata><?xpacket begin="﻿" id="W5M0MpCehiHzreSzNTczkc9d"?>
<x:xmpmeta xmlns:x="adobe:ns:meta/" x:xmptk="Adobe XMP Core 5.6-c138 79.159824, 2016/09/14-01:09:01        ">
   <rdf:RDF xmlns:rdf="http://www.w3.org/1999/02/22-rdf-syntax-ns#">
      <rdf:Description rdf:about=""/>
   </rdf:RDF>
</x:xmpmeta>
                                                                                                    
                                                                                                    
                                                                                                    
                                                                                                    
                                                                                                    
                                                                                                    
                                                                                                    
                                                                                                    
                                                                                                    
                                                                                                    
                                                                                                    
                                                                                                    
                                                                                                    
                                                                                                    
                                                                                                    
                                                                                                    
                                                                                                    
                                                                                                    
                                                                                                    
                                                                                                    
                           
<?xpacket end="w"?></metadata>
<defs>
    <style>
      .cls-1 {
        fill: #f16d7f;
      }

      .cls-1, .cls-2 {
        fill-rule: evenodd;
      }

      .cls-2 {
        fill: #222;
      }
    </style>
  </defs>
  <path id="BRAND" class="cls-1" d="M390.885,50.237a9.142,9.142,0,0,0-2.072-3.112,9.533,9.533,0,0,0-3.22-2.052,11.3,11.3,0,0,0-4.178-.742h-7.641V64h7.641a11.386,11.386,0,0,0,4.178-.736,9.393,9.393,0,0,0,3.22-2.052,9.214,9.214,0,0,0,2.072-3.118A10.853,10.853,0,0,0,390.885,50.237ZM386.572,56.8a5.616,5.616,0,0,1-1.087,1.991,4.712,4.712,0,0,1-1.735,1.256,5.885,5.885,0,0,1-2.335.439h-3.051V47.841h3.051a5.891,5.891,0,0,1,2.335.439,4.718,4.718,0,0,1,1.735,1.255,5.619,5.619,0,0,1,1.087,1.991A9.4,9.4,0,0,1,386.572,56.8Z" transform="translate(-300.125 -44.344)"/>
  <path id="BRAND-2" data-name="BRAND" class="cls-2" d="M306.329,64a9.562,9.562,0,0,0,2.727-.358,5.73,5.73,0,0,0,2.025-1.033,4.434,4.434,0,0,0,1.255-1.647,5.329,5.329,0,0,0,.432-2.187,4.043,4.043,0,0,0-1.215-3.065,6.219,6.219,0,0,0-3.469-1.5,5.851,5.851,0,0,0,1.653-.668,4.894,4.894,0,0,0,1.222-1.033,4.417,4.417,0,0,0,.763-1.3,4.129,4.129,0,0,0,.263-1.458,5.189,5.189,0,0,0-.385-2.052,3.893,3.893,0,0,0-1.167-1.532,5.371,5.371,0,0,0-1.978-.952,10.9,10.9,0,0,0-2.828-.324h-5.5V64h6.2Zm-0.014-9.153a7.828,7.828,0,0,1,2.147.27,4.628,4.628,0,0,1,1.593.776,3.4,3.4,0,0,1,.992,1.228,3.742,3.742,0,0,1,.344,1.627,3.788,3.788,0,0,1-1.282,3.058,5.763,5.763,0,0,1-3.807,1.087h-4.793V54.847h4.806Zm-4.806-8.856h4.118a5.93,5.93,0,0,1,3.773.992,3.546,3.546,0,0,1,1.222,2.923,3.824,3.824,0,0,1-.284,1.444,3.464,3.464,0,0,1-.884,1.256,4.48,4.48,0,0,1-1.539.891,6.7,6.7,0,0,1-2.261.337h-4.145V45.991Zm20.884,9.369a2.059,2.059,0,0,1,.817.121,1.354,1.354,0,0,1,.493.419l6.115,7.749a0.978,0.978,0,0,0,.3.27,0.791,0.791,0,0,0,.371.081h1.2l-6.575-8.262a2.187,2.187,0,0,0-.58-0.54,7.591,7.591,0,0,0,2.254-.574A5.786,5.786,0,0,0,328.5,53.5a4.676,4.676,0,0,0,1.087-1.586,5.132,5.132,0,0,0,.378-2,4.465,4.465,0,0,0-1.634-3.746,7.959,7.959,0,0,0-4.941-1.276h-4.873V64H319.9V55.36h2.5Zm-2.5-9.369h3.5a6.49,6.49,0,0,1,3.888.986A3.511,3.511,0,0,1,328.617,50a4.267,4.267,0,0,1-.365,1.8,3.762,3.762,0,0,1-1.059,1.364,4.9,4.9,0,0,1-1.7.871,7.867,7.867,0,0,1-2.275.3H319.9V45.991ZM342.387,44.9H341.01L333.193,64h1.053a0.5,0.5,0,0,0,.324-0.108,0.579,0.579,0,0,0,.189-0.257L337,58.087h9.383l2.254,5.548a0.671,0.671,0,0,0,.189.263,0.47,0.47,0,0,0,.311.1H350.2Zm-1.067,2.524q0.094-.243.189-0.533t0.189-.614q0.095,0.324.189,0.614t0.189,0.52l3.9,9.653h-8.559ZM354.577,44.9H353.9V64h1.2V47.922q0-.364-0.04-0.77l12.42,16.578a0.582,0.582,0,0,0,.5.27h0.662V44.9h-1.215V60.922q0,0.378.04,0.783L355.1,45.154a0.636,0.636,0,0,0-.229-0.209,0.76,0.76,0,0,0-.3-0.047h0Z" transform="translate(-300.125 -44.344)"/>
</svg>
