<svg xmlns="http://www.w3.org/2000/svg" width="13" height="13" viewBox="0 0 13 13">
  <metadata><?xpacket begin="﻿" id="W5M0MpCehiHzreSzNTczkc9d"?>
<x:xmpmeta xmlns:x="adobe:ns:meta/" x:xmptk="Adobe XMP Core 5.6-c138 79.159824, 2016/09/14-01:09:01        ">
   <rdf:RDF xmlns:rdf="http://www.w3.org/1999/02/22-rdf-syntax-ns#">
      <rdf:Description rdf:about=""/>
   </rdf:RDF>
</x:xmpmeta>
                                                                                                    
                                                                                                    
                                                                                                    
                                                                                                    
                                                                                                    
                                                                                                    
                                                                                                    
                                                                                                    
                                                                                                    
                                                                                                    
                                                                                                    
                                                                                                    
                                                                                                    
                                                                                                    
                                                                                                    
                                                                                                    
                                                                                                    
                                                                                                    
                                                                                                    
                                                                                                    
                           
<?xpacket end="w"?></metadata>
<defs>
    <style>
      .cls-1 {
        fill: #a4a4a4;
        fill-rule: evenodd;
      }
    </style>
  </defs>
  <path id="_копия" data-name=" копия" class="cls-1" d="M812.5,54a3.507,3.507,0,1,1,2.473-1.027A3.371,3.371,0,0,1,812.5,54Zm7.211,2.3-2.68-2.68A5.349,5.349,0,0,0,818,50.5a5.406,5.406,0,0,0-.434-2.137,5.381,5.381,0,0,0-2.929-2.93,5.483,5.483,0,0,0-4.274,0,5.381,5.381,0,0,0-2.929,2.93,5.477,5.477,0,0,0,0,4.273,5.381,5.381,0,0,0,2.929,2.93A5.405,5.405,0,0,0,812.5,56a5.348,5.348,0,0,0,3.117-.969L818.3,57.7a0.928,0.928,0,0,0,.7.3,1,1,0,0,0,.711-1.7h0Z" transform="translate(-807 -45)"/>
</svg>
